<?xml version="1.0" encoding="UTF-8"?>
<svg id="Layer_1" xmlns="http://www.w3.org/2000/svg" version="1.1" viewBox="0 0 50 50">
  <!-- Generator: Adobe Illustrator 29.0.1, SVG Export Plug-In . SVG Version: 2.1.0 Build 192)  -->
  <defs>
    <style>
      .st0 {
        fill: #2dbba3;
      }
    </style>
  </defs>
  <path class="st0" d="M44.4,22.93c.8,1.4.7,3.1-.2,4.4h0c-5.3,6.8-10.7,13.6-16.1,20.4-1.8,2.2-4.3,2.2-6.1-.1-5.3-6.7-10.6-13.4-15.9-20.1-1.4-1.8-1.4-3.4,0-5.2,5.1-6.5,10.2-12.9,15.3-19.3.3-.4.6-.7.9-1,1.6-1.8,4-1.9,5.5-.1,3.4,4.1,6.6,8.3,9.9,12.4,2.1,2.7,4.3,5.3,6.3,8.1.2.1.3.3.4.5Z"/>
</svg>