<?xml version="1.0" encoding="UTF-8"?>
<svg id="Layer_1" xmlns="http://www.w3.org/2000/svg" version="1.1" viewBox="0 0 50 50">
  <!-- Generator: Adobe Illustrator 29.0.1, SVG Export Plug-In . SVG Version: 2.1.0 Build 192)  -->
  <defs>
    <style>
      .st0 {
        fill: #2eb9a1;
      }
    </style>
  </defs>
  <path class="st0" d="M28.73,9.57c1.22-1.35,8.27,7.37,8.83,8.59.48,1.05-.17,2.77.87,2.83L48.72,3.86c-.47,2.7.49,4.37-.66,7.05-.99,2.31-4.48,4.34-4.2,6.66l4.28-4.57c.83,4.3-2.64,6.15-5.13,8.86,1.24.67,2.77-1.43,3.71-2,.56,1.08-1.6,4.02-2.55,4.88-1.36,1.23-3.24,1-2.88,2.54l1.7.28c-4.3,3.85-6.96,6.19-4.02,12.25l-11.11,6.33-.81-17.92.88-.86c3.68.02,6.67.53,7.06-4.08-3.07-.38-6.22,1.27-7.99-1.72l-2.01,3.42-2.29-3.41c-1.18,3.09-4.93,1.24-7.71,1.71.67,4.03,3.5,4.28,7.06,4.07l.85.86-.49,17.07-.85.84-10.33-6.83c2.79-5.65-.58-8.9-4.81-12.02h2.01s.27-1.13.27-1.13c-3.35-.43-4.42-3.67-5.71-6.29l3.42,1.43c-2.25-2.24-5.53-4.6-4.28-8.28l4.86,4.85C4.31,13.05-.39,10.69,1.88,4.43l9.72,16.56h1.13c-.55-1.16-.71-1.6-.29-2.82.75-2.17,6.42-7.71,8.86-8.61v10.28c.37.04,1.14-.76,1.14-.86v-9.14c0-4.74,5.14-2.74,5.14-1.71v10.86c0,.1.77.9,1.14.86v-10.28Z"/>
</svg>