<?xml version="1.0" encoding="UTF-8"?>
<svg id="Layer_1" xmlns="http://www.w3.org/2000/svg" version="1.1" viewBox="0 0 60 60">
  <!-- Generator: Adobe Illustrator 29.0.1, SVG Export Plug-In . SVG Version: 2.1.0 Build 192)  -->
  <defs>
    <style>
      .st0 {
        fill: #cd7f32;
      }
    </style>
  </defs>
  <path class="st0" d="M46.61,5.67H14c-.55,0-1.08.21-1.49.58l-6.3,5.79c-.45.42-.71,1-.71,1.62v32.12c0,.58.23,1.13.63,1.54l6.28,6.35c.41.42.98.65,1.56.65h32.6c.62,0,1.21-.26,1.63-.72l5.73-6.3c.37-.4.57-.93.57-1.48V13.85c0-.56-.22-1.11-.61-1.51l-5.69-5.98c-.41-.44-.99-.68-1.59-.68ZM12.09,17.14c-.48.48-1.24.48-1.72,0s-.48-1.24,0-1.72l4.35-4.35c.23-.23.54-.36.86-.36h27.63c.67,0,1.22.55,1.22,1.22,0,.33-.14.64-.36.86-.22.22-.52.36-.86.36h-25.71c-.91,0-1.77.36-2.41,1l-3,3ZM34.65,29.94c-.27,2.17-2.02,3.92-4.19,4.19-3.18.41-5.86-2.28-5.46-5.46.27-2.17,2.02-3.92,4.19-4.19,3.18-.41,5.86,2.28,5.46,5.46ZM49.81,45.1l-4.88,4.87c-.23.23-.54.36-.86.36h-27.63c-.67,0-1.22-.55-1.22-1.22,0-.33.14-.64.36-.86.22-.22.52-.36.86-.36h25.71c.91,0,1.78-.36,2.42-1l3.52-3.52c.48-.48,1.24-.48,1.72,0,.24.24.36.55.36.86s-.12.62-.36.86Z"/>
</svg>