<?xml version="1.0" encoding="UTF-8"?>
<svg id="Layer_1" xmlns="http://www.w3.org/2000/svg" xmlns:xlink="http://www.w3.org/1999/xlink" version="1.1" viewBox="0 0 180 252">
  <!-- Generator: Adobe Illustrator 29.0.1, SVG Export Plug-In . SVG Version: 2.1.0 Build 192)  -->
  <defs>
    <style>
      .st0 {
        fill: none;
      }

      .st1 {
        fill: #dee2da;
      }

      .st2 {
        fill: #fff;
      }

      .st3 {
        fill: #216130;
      }

      .st4 {
        clip-path: url(#clippath);
      }
    </style>
    <clipPath id="clippath">
      <rect class="st0" width="180" height="252"/>
    </clipPath>
  </defs>
  <rect class="st3" width="180" height="252"/>
  <g class="st4">
    <path class="st2" d="M171,220.18c0,4.32-3.62,7.82-8.1,7.82H17.1c-4.47,0-8.1-3.5-8.1-7.82V16.82c0-4.32,3.62-7.82,8.1-7.82h145.8c4.48,0,8.1,3.5,8.1,7.82v203.36"/>
    <path class="st1" d="M81.38,150.25c-3.64-2.37-6.84-5.3-10.22-8.01-1.96-1.41-3.18-3.55-4.74-5.33-1.03-1.08-1.42-2.54-2.04-3.85-1.61-3.42-2.63-7.07-3.88-10.62-.85-3.96-2.04-7.86-2.34-11.91-.59-4.63-.94-9.29-1.12-13.95.18-1.38.41-2.77.74-4.12.72,2.15,1.17,4.4,1.99,6.53,1.67,3.31,3.14,6.73,4.93,9.98,4.17,6.21,8.24,12.49,12.43,18.69,4.01,4.69,8.03,9.37,12.16,13.96-2.7,2.82-5.3,5.74-7.91,8.65"/>
    <path class="st1" d="M59.99,210.81c-.3,0-.59-.1-.89-.37.85-2.23-2.81-3.31-1.86-5.5.04-1.04,1.11-1.37,1.77-1.98-.17-.31-.33-.61-.5-.92.52-1.45,1.06-2.89,1.61-4.33.53-1.14-.33-2.27-.52-3.39.81-.45,1.66-.92,2.6-.92.13,0,.27,0,.4.03.26-1.11.37-2.25.77-3.32,1.58-3.91,3.15-7.83,4.72-11.75.44-1.03.48-2.17.83-3.23.38-.66,1.18-.85,1.81-1.19,1.21-.56,1.92-1.75,2.85-2.65,1.06-.86.48-2.35.55-3.51-.33-.53-1.1-.67-1.61-1.01,1.48-2.98,3.41-5.71,5.1-8.56,2.02-3.33,4.07-6.65,6.58-9.64,2.18-2.31,4.17-4.81,6.5-6.96,4.15-4.58,8.17-9.27,12.18-13.97,3.79-5.6,7.47-11.26,11.23-16.88,2.4-3.35,3.8-7.27,5.7-10.9,1.19-2.33,1.55-4.96,2.41-7.41.33,1.32.54,2.67.73,4.02-.15,5.8-.78,11.57-1.49,17.32-.46,2.21-1,4.41-1.49,6.62-.54,2.81-1.7,5.45-2.56,8.17-.74,2.39-1.9,4.62-2.87,6.93-1.28,1.97-2.88,3.75-4.36,5.58-4.91,4.11-9.79,8.32-15.29,11.65-1.76,1.31-3.41,2.78-5.1,4.18-2.06,2.47-4.13,4.94-6.15,7.44-2.04,3.2-4.02,6.45-6.01,9.68-1.49,2.93-2.88,5.91-4.33,8.87-1.61,3.75-3.07,7.56-4.61,11.34-.97,2.7-1.78,5.45-2.7,8.16-.56,1.57-.37,3.29-.76,4.88-.65.8-1.93,1.18-1.89,2.41-.1-.02-.2-.03-.31-.03-.54,0-1.06.28-1.56.56-.5.28-.99.57-1.48.57"/>
    <path class="st1" d="M120.02,210.8c-.49,0-.98-.28-1.48-.56-.5-.28-1.02-.56-1.56-.56-.1,0-.2.01-.31.03.05-1.23-1.23-1.61-1.89-2.41-.39-1.6-.19-3.31-.76-4.88-.93-2.71-1.74-5.46-2.7-8.16-1.53-3.74-2.99-7.52-4.58-11.25-1.46-2.98-2.87-6-4.37-8.96-1.96-3.18-3.92-6.36-5.91-9.52-1.83-2.35-3.82-4.59-5.67-6.92,1.34-1.29,2.72-2.55,4.09-3.82,1.08-.81,2.29-1.41,3.44-2.11,2.72,4.31,5.35,8.68,8.05,13.01.44.67.72,1.42,1.11,2.1-.53.3-1.13.5-1.59.91-.06.98-.19,2.01,0,2.97.77.95,1.62,1.86,2.49,2.72.8.78,2.18.81,2.73,1.84.33,1.27.48,2.6,1.05,3.79,1.48,3.67,2.94,7.34,4.43,11,.43,1.09.54,2.27.81,3.41.13-.02.27-.03.4-.03.94,0,1.79.47,2.6.92-.2.94-.71,1.83-.7,2.8.53,1.66,1.22,3.27,1.78,4.92-.17.31-.33.61-.5.92.65.61,1.72.94,1.76,1.98.95,2.18-2.71,3.26-1.86,5.49-.3.27-.6.37-.89.37"/>
    <path class="st1" d="M86.93,191.2c-.31,0-.63-.07-.93-.25-1.43-.29-2.09-1.65-3-2.62-.35-.45-.84-.85-.92-1.45-.18-2.2-.26-4.44.2-6.61.99-1.3,2.46-2.23,3.18-3.76.4-1.01,1.42-1.41,2.38-1.73-.41.8-.63,1.73-.42,2.62.28.56.9.87,1.11,1.48.71,1.95,1.22,3.98,1.45,6.03-.18,1.91-.47,3.81-.69,5.71-.77.16-1.56.58-2.34.58"/>
    <path class="st1" d="M94.2,191.21c-.77,0-1.53-.46-2.29-.58-.22-1.9-.52-3.8-.69-5.71.22-2.06.73-4.08,1.44-6.03.21-.6.83-.92,1.11-1.48.21-.89-.01-1.81-.42-2.61.8.32,1.77.55,2.18,1.4.73,1.78,2.58,2.75,3.47,4.37.3,2.23.41,4.53-.02,6.74-1.21,1.38-2.13,3.33-4.09,3.76-.23.11-.46.15-.69.15"/>
    <path class="st1" d="M79.15,199.18c-.34,0-.69-.06-1.05-.21-1.39-.96-2.15-2.54-2.98-3.96-.3-1.28-.61-2.78.16-3.96.73-1.62,1.51-3.2,2.56-4.65.56-1.12,1.31-2.15,2.45-2.73-.71,2.18.08,4.45,1.39,6.23.71.86.81,1.98,1.21,2.98.53,1.08.44,2.39.08,3.5-.77,1.36-2.2,2.79-3.81,2.79"/>
    <path class="st1" d="M102.04,199.19c-1.59,0-2.99-1.39-3.77-2.71-.86-1.96.18-3.97.8-5.83,1.41-2.01,2.7-4.46,1.84-6.97,1.1.57,1.87,1.55,2.41,2.65,1.05,1.47,1.87,3.08,2.6,4.73.76,1.19.45,2.68.16,3.96-.83,1.42-1.59,3-2.98,3.96-.36.14-.71.21-1.05.21"/>
    <path class="st1" d="M82.39,208.63c-1.59,0-2.74-1.27-3.9-2.2-.79-.75-1.24-1.78-1.85-2.66,1.23-2.26,4.36-1.81,5.85-3.82,1.24-1.75,1.97-3.82,3.15-5.61,1.56-.79,3.34-1.41,5.11-1.41.84,0,1.67.14,2.48.46.92.49,2.3.47,2.74,1.58.78,1.52,1.58,3.03,2.4,4.54,1.01,1.55,2.83,2.1,4.47,2.7.79.23,1.23.95,1.71,1.56-.96,1.9-2.46,3.46-4.29,4.53-.5.2-1.03.32-1.56.32-.39,0-.77-.06-1.15-.19-2.37-.5-4.73-1.39-7.16-1.39-.49,0-.97.04-1.47.12-2.09.47-4.15,1.04-6.25,1.47-.1,0-.19.01-.28.01"/>
    <rect class="st3" x="9" y="26.33" width="162" height="6.67"/>
    <rect class="st3" x="9" y="50.75" width="162" height="1.5"/>
    <rect class="st3" x="89.25" y="31.67" width="1.5" height="38.33"/>
    <rect class="st3" x="9" y="68.67" width="162" height="11.33"/>
    <path class="st2" d="M88.32,235.37c-.11-1.17.45-1.82.71-2.08.56-.57,1.3-.91,2.41-.85,1.74.09,2.58,1.29,2.58,2.58,0,.66-.36,1.57-.84,2.16l-.09-.09c-.32-.31-.79-.68-1.1-1.11.59-.87.34-2.24-.73-2.24-.67,0-1.21.69-1,1.55-.11.38-.14.87-.07,1.24-.77-.4-1.02-.93-1.18-1.41-.21.41-.32.96-.17,1.47,0,0-.46-.4-.53-1.22M88.76,237.49c.07-.27-.46-.72-.66-.81.72-.03,1.08.11,1.08.11-.19-.28-.25-.7-.14-1.04.4.95,1.81,1.1,2.16,1.89-.05-.34-.37-.72-.74-.94-.2-.51-.05-1.47.19-1.73-.08,1.37,1.86,2.15,2.27,3.14-.24-.85-1.15-1.39-1.58-1.9-.14-.34-.03-.91.12-1.11-.04.92.94,1.63,1.47,2.14.62.6.8,1.14.72,1.57.14.04.32.17.29.39.2-.05.4-.27.45-.41.1.68-.3,1.4-.75,1.61,0,0,.12-.32-.08-.57-.2-.25-.77-.25-.96-.24,0,0,.24-.35.14-.53-.12-.22-1.24-.12-1.74.06.17-.02.57.03.71.09-.08.12-.28.61-.13.76.13.13.31-.1.31-.1,0,0-.17.54-.05.66s.39.04.39.04c-.17.42-.82.71-1.27.71.16-.05.43-.34.47-.51-.12.06-.43.09-.55.07.15-.06.44-.44.35-.86-.13-.62-1-.7-1.44-.4.14-.42.56-.81.89-.93-.19-.07-.42-.13-.66-.17.28-.23.97-.41,1.33-.39-.54-.14-1.53.03-1.99.57.14,0,.52.07.66.12-.62.11-1.47.69-1.72.97.07-.36.17-.66.08-.88-.12-.3-.49-.43-1.23-.28.5-.5,1.52-.81,1.58-1.08M92.15,237.97c.1.35.23.67.65.67,0,0-.15-.48-.65-.67M98.85,237.49c-.73,0-1.15.36-1.25.2-.13-.21.5-.51.5-.51-.87.04-1.5,1.05-1.76.93-.16-.08.23-.57.23-.57-.79.46-1.45,1.43-1.59,2.02.73-.89,2.14-1.53,3.06-1.39-1.62.08-3.01,1.51-3.67,2.44.12.04.25.1.37.19.15.12.38.31.61.5.14-.32.57-1.27,1.3-2.1.58-.67,1.59-.73,2.12-.32.34-.31,1.52-.6,2.14-.42-.38-.41-1.18-.96-2.07-.96M98.36,241.79c.32.05.76.39.76.87,0,.79-.98,1.03-1.52.9.57-.4.5-1.55-.19-1.96.23.64-.47,1.28-1.15.72-.38-.31-1.26-1.04-1.65-1.36-.39-.31-.85-.13-1.03-.27-.21-.16-.08-.6-.36-.76-.24-.14-.47-.06-.74-.15-.25-.08-.43-.28-.4-.54-.11.19-.11.51.08.73.19.22.5.35.63.59.17.31-.11.74.63,1.32.36.28.9.74,1.26,1.05.6.53.28,1.19.36,1.77.09.67.64,1.05,1,1.14-.31-.28-.43-1,0-1.43.02.57.43,1.45,1.36,1.7.99.26,2.04-.3,2.26-.69-.38.17-1.1-.01-1.39-.29,1.16.17,2.18-.64,2.18-1.67s-.97-1.78-2.09-1.68M93.39,242.15c-.36.69-1.26,1.68-2.16,1.68-1.6,0-2.4-2.31-.49-4.15-.1-.04-.22-.06-.34-.06-.52,0-.91.45-.91.45.02-.47.17-.8.33-1.02-.54.19-1.52.87-1.76,1.21,0-.74.26-1.17.11-1.39l-.03-.03s-1.31.87-1.44,2.29c0,0,.17-.24.32-.3.1-.04.18.01.09.3-.04.11-.89,2.44.79,4.05,0,0-.19-.47-.07-.61.05-.07.12-.08.22.05.07.1.15.19.23.28h0c.14.16.29.31.46.44.5.35,1.19.64,1.97.64,2.16,0,3.28-1.55,3.88-2.78l-.07-.07c-.32-.27-.79-.67-1.14-.95"/>
    <path class="st2" d="M66.81,235.83c-2.25,0-3.88,1.57-3.88,3.74s1.64,3.68,3.9,3.68,3.94-1.6,3.94-3.73-1.7-3.69-3.96-3.69M66.79,237.58c1.16,0,1.9.76,1.9,1.94s-.76,2-1.85,2-1.86-.77-1.86-1.95.69-1.99,1.8-1.99"/>
    <path class="st2" d="M32.11,236.37c-.52-.27-1.05-.41-1.77-.43h0s-1.45,0-1.45,0c-1.15,0-1.69-.02-2.09-.11-.34-.08-.65-.28-.66-.28l-.09-.06v.1s.09.81,1.02,1.49c.18.13.3.26.3.71v4.16c0,.44-.09.57-.29.69-.22.13-.68.4-.68.4l-.16.09h3.77c1.05,0,1.71-.18,2.43-.66.31-.2.56-.44.78-.71.48-.6.75-1.42.75-2.26,0-1.37-.7-2.54-1.86-3.15M30.2,241.39h-.81v-3.71h.81c1.06,0,1.67.68,1.67,1.86s-.61,1.85-1.67,1.85"/>
    <path class="st2" d="M41.98,235.93l-.15.09s-.39.24-.64.4c-.22.14-.3.24-.3.71v3.03c0,.67-.06,1.03-.22,1.43-.43,1.04-1.5,1.65-2.87,1.65-.99,0-1.77-.3-2.39-.9-.24-.24-.4-.47-.51-.71-.15-.34-.23-.87-.23-1.52v-2.98c0-.47-.08-.57-.3-.71-.24-.16-.63-.4-.64-.4l-.15-.09h3.03c.14,0,.29.09.3.09l.05.03-.03.05s-.11.14-.17.24c-.04.08-.07.12-.08.32v3.67c0,.8.38,1.2,1.12,1.2s1.07-.39,1.09-1.17v-.03s0,0,0,0h0s0-3.68,0-3.68c0-.19-.03-.24-.08-.32-.06-.1-.17-.24-.17-.24l-.03-.05.05-.03s.16-.09.3-.09h3.03Z"/>
    <path class="st2" d="M84.11,241.06c-.04,1.35-1.19,2.22-2.95,2.22-.13,0-.27,0-.4-.01-.4-.03-1.2-.17-1.44-.22-.24-.05-.32-.08-.33-.08h-.03s-.14-.05-.14-.05l-.15-2.7.38.29.37.27.05.04c.59.47,1.12.73,1.58.77.11,0,.22.02.31.02.66,0,.75-.24.77-.45.06-.42-.35-.64-.7-.74l-.13-.04c-.56-.17-1.33-.41-1.84-.72-.58-.35-.92-1.02-.87-1.72.1-1.38,1.04-2.15,2.65-2.15.13,0,.27,0,.42.01.44.03,1.17.19,1.31.22.24.05.32.08.33.08h.03s.14.06.14.06l.12,2.13c-.76-.5-1.5-.78-2.12-.83h-.04s-.02,0-.02,0h-.17c-.34,0-.59.06-.71.18-.06.06-.09.13-.09.23,0,.3.45.42,1.13.59h.03c.1.03.19.05.29.08,1.5.38,2.24,1.23,2.21,2.53"/>
    <path class="st2" d="M62.66,240.74l-.54,2.41h-5.98l.16-.09s.46-.27.68-.4c.22-.14.29-.22.29-.69v-4.81c0-.46-.08-.56-.3-.71-.24-.16-.63-.4-.63-.4l-.15-.09h5.77l.22,2.29-.42-.32c-.25-.18-.34-.21-.78-.21h-1.7v.9h1.69c.33,0,.38-.01.45-.05l.18-.09.06-.04v2.31s-.07-.11-.07-.11c0,0-.1-.15-.24-.22-.13-.06-.34-.06-.54-.05h-1.53v1.06h1.64c.64,0,.85-.06,1.12-.22.14-.08.62-.43.62-.43"/>
    <path class="st2" d="M49.7,235.93l-.19.1s-.45.23-.69.4c-.22.15-.3.25-.3.71v6.24l-4.38-4.29v2.87c0,.46.09.57.3.69.22.14.67.4.68.4l.17.1h-4.1l.16-.1s.45-.26.68-.4c.21-.13.29-.23.29-.69v-4.75c0-.47-.1-.62-.31-.78-.21-.15-.58-.39-.58-.4l-.14-.09h2.4,0s3.02,2.95,3.02,2.95v-1.75c0-.47-.08-.57-.3-.71-.24-.16-.63-.4-.64-.4l-.15-.09h4.08Z"/>
    <path class="st2" d="M78.92,235.93l-.19.1s-.45.23-.69.4c-.22.15-.3.25-.3.71v6.24l-4.38-4.29v2.87c0,.46.09.57.29.69.22.14.67.4.68.4l.17.1h-4.1l.17-.1s.45-.26.68-.4c.21-.13.29-.23.29-.69v-4.75c0-.47-.1-.62-.31-.78-.21-.15-.58-.39-.58-.4l-.14-.09h2.4,0s3.02,2.95,3.02,2.95v-1.75c0-.47-.08-.57-.3-.71-.24-.16-.63-.4-.63-.4l-.15-.09h4.09Z"/>
    <path class="st2" d="M56.15,242.72s-.11-.14-.17-.24c-.06-.08-.09-.16-.09-.45v-1.95c0-.29.03-.35.08-.43.06-.1.17-.24.17-.24l.03-.05-.05-.03s-.14-.07-.29-.09h0s-3.07,0-3.07,0l.15.09s.45.28.65.4c.2.12.3.27.3.7v1.06c-.23.07-.46.1-.74.1-1.24,0-1.86-.67-1.86-1.98s.69-1.98,1.88-1.98c.75,0,1.54.17,2.5.9v-.05s-.22-2.09-.22-2.09v-.15s-.17-.04-.17-.04l-.15-.03c-.64-.15-.89-.19-1.27-.24-.22-.03-.35-.04-.63-.04h-.12c-2.26,0-3.9,1.58-3.9,3.75s1.65,3.7,3.92,3.7c.4,0,1.16-.07,1.64-.17.09-.02.14-.03.21-.05h.05c.27-.07.55-.14.83-.23l.35-.11-.04-.06Z"/>
    <path class="st2" d="M107.96,236.37c-.52-.27-1.05-.41-1.77-.43h0s-1.45,0-1.45,0c-1.15,0-1.69-.02-2.09-.11-.34-.08-.65-.28-.66-.28l-.09-.06v.1s.09.81,1.02,1.49c.18.13.3.26.3.71v4.16c0,.44-.09.57-.29.69-.22.13-.68.4-.68.4l-.16.09h3.77c1.05,0,1.71-.18,2.43-.66.3-.2.56-.44.77-.71.48-.6.75-1.42.75-2.26,0-1.37-.69-2.54-1.86-3.15M106.05,241.39h-.81v-3.71h.81c1.06,0,1.67.68,1.67,1.86s-.61,1.85-1.67,1.85"/>
    <path class="st2" d="M149.56,238.52c-.1-.02-.19-.05-.29-.07h-.03c-.69-.17-1.14-.3-1.14-.59,0-.1.03-.18.09-.23.12-.12.37-.19.71-.19h.17s.02,0,.02,0h.04c.62.06,1.36.33,2.12.83l-.12-2.13-.14-.05h-.03s-.09-.04-.33-.09c-.14-.03-.88-.19-1.31-.22-.14-.01-.28-.02-.42-.02-1.61,0-2.55.76-2.65,2.15-.05.69.29,1.37.86,1.72.51.31,1.28.55,1.84.72l.13.04c.35.11.76.33.7.74-.03.22-.11.45-.77.45-.1,0-.2,0-.32-.01-.46-.04-.99-.3-1.57-.77l-.05-.04-.37-.27-.38-.28.15,2.7.14.05h.03s.08.04.33.09c.24.05,1.04.19,1.45.22.13,0,.27.01.4.01,1.75,0,2.91-.87,2.94-2.22.03-1.3-.71-2.15-2.21-2.53"/>
    <path class="st2" d="M134.47,235.84c-2.25,0-3.89,1.57-3.89,3.74s1.64,3.68,3.9,3.68,3.94-1.6,3.94-3.73-1.7-3.69-3.96-3.69M134.51,241.53c-1.13,0-1.86-.77-1.86-1.95s.69-1.99,1.8-1.99,1.9.76,1.9,1.94-.76,2-1.85,2"/>
    <path class="st2" d="M123.23,242.25c-.07-.1-.09-.13-.15-.28h0l-2.38-6.04h-2.84l.51.46c.11.1.11.14.11.18v.1s-2.19,5.26-2.19,5.26c-.37-.41-.96-1.16-1.72-2.16.26-.15.49-.36.66-.61.23-.32.35-.73.35-1.16,0-.93-.55-1.66-1.43-1.91-.37-.11-.63-.13-1.29-.14-.19,0-3.43,0-3.43,0l.15.09s.43.27.64.4c.2.13.3.27.3.71v4.8c0,.46-.11.57-.3.7-.2.13-.84.5-.84.5h4.21s-.64-.33-.86-.49c-.21-.16-.3-.25-.3-.7v-1.54l.11.03c.14.07.29.23.48.49h0s0,.01,0,.01l1.81,2.19h3.96s-.39-.32-.55-.47c-.15-.14-.17-.21-.06-.47.03-.06.07-.18.12-.32h2.61c.05.15.1.27.12.32.09.22.03.35-.1.48-.14.15-.46.46-.46.46h3.77l-.61-.48c-.27-.21-.3-.26-.41-.41M112.67,239.06s-.14,0-.24,0v-1.68h.24c.69,0,.93.25.93.62,0,.96-.48,1.07-.93,1.07M118.95,240.17l.71-1.77.65,1.77h-1.36Z"/>
    <path class="st2" d="M146.58,235.93h-4.09l.15.09s.4.24.64.4c.22.15.3.25.3.71v1.75l-3.02-2.95h0s-2.4,0-2.4,0l.14.09s.37.24.58.4c.21.15.31.31.31.78v4.75c0,.46-.09.56-.3.69-.23.14-.68.4-.68.4l-.16.1h4.1l-.16-.1s-.46-.26-.68-.4c-.2-.13-.29-.23-.29-.69v-2.87l4.38,4.29v-6.24c0-.46.08-.56.3-.71.24-.16.69-.4.69-.4l.19-.1Z"/>
    <path class="st2" d="M130.17,242.66s-.11-.14-.17-.24c-.05-.09-.09-.16-.09-.46v-1.94c0-.29.03-.35.08-.44.06-.1.17-.24.17-.24l.04-.05-.05-.03s-.14-.07-.29-.09h0s-3.07,0-3.07,0l.16.09s.45.28.65.4c.2.12.3.27.3.69v1.06c-.23.07-.46.11-.74.11-1.24,0-1.86-.67-1.86-1.98s.69-1.98,1.88-1.98c.75,0,1.54.17,2.5.9v-.05s-.23-2.09-.23-2.09l-.02-.15-.15-.04-.14-.03c-.64-.15-.89-.19-1.28-.24-.22-.03-.35-.04-.63-.04h-.12c-2.26,0-3.9,1.58-3.9,3.75s1.65,3.7,3.92,3.7c.4,0,1.16-.07,1.64-.17.09-.02.14-.03.21-.05h.05c.27-.07.55-.14.83-.23l.35-.11-.04-.06Z"/>
    <path class="st2" d="M153.94,236.83c0,.49-.32.9-.89.9s-.89-.41-.89-.9.32-.9.89-.9.89.41.89.9M153.05,237.55c.43,0,.68-.32.68-.71s-.24-.72-.68-.72-.67.32-.68.72c0,.4.25.71.68.71M153.27,236.96c.33-.08.26-.58-.14-.58h-.44v.92h.24v-.29h.09l.22.29h.26v-.05l-.23-.28ZM153.13,236.59c.14,0,.14.21,0,.21h-.2v-.21h.2Z"/>
  </g>
</svg>